<svg width="46" height="56" viewBox="0 0 46 56" fill="none" xmlns="http://www.w3.org/2000/svg">
<path d="M32.9081 0H22.7344V11.7046H32.9081V0Z" fill="#2A3647"/>
<path d="M22.7343 21.2236H32.9079V37.7312C32.9544 41.7034 31.8239 45.5997 29.6602 48.9249C27.5237 52.1556 23.3995 55.9995 15.7692 55.9995C7.45809 55.9995 2.61385 52.0692 0 49.9153L6.41724 41.9996C8.96849 44.0827 11.4258 45.7963 15.8083 45.7963C19.1265 45.7963 20.4491 44.4443 21.2239 43.2651C22.2771 41.6274 22.8219 39.7121 22.789 37.7626L22.7343 21.2236Z" fill="#2A3647"/>
<path d="M17.5457 13.835H7.37207V24.0539H17.5457V13.835Z" fill="#29ABE2"/>
<path d="M38.2374 51.2052C38.2374 53.3826 37.134 54.5539 35.5923 54.5539C34.0506 54.5539 33.041 53.1625 33.041 51.3152C33.041 49.468 34.0819 48.0059 35.6783 48.0059C37.2748 48.0059 38.2374 49.4444 38.2374 51.2052ZM34.2227 51.2916C34.2227 52.6044 34.7471 53.5713 35.647 53.5713C36.547 53.5713 37.0557 52.5494 37.0557 51.213C37.0557 50.0418 36.5861 48.9413 35.647 48.9413C34.7079 48.9413 34.2227 50.0025 34.2227 51.2916Z" fill="#2A3647"/>
<path d="M40.2563 48.1006V54.4521H39.1294V48.1006H40.2563Z" fill="#2A3647"/>
<path d="M41.4773 54.4521V48.1006H42.7294L44.0755 50.7182C44.422 51.4027 44.7303 52.106 44.999 52.8249C44.9285 52.0388 44.8972 51.1348 44.8972 50.1287V48.1006H45.9302V54.4521H44.7642L43.4025 51.7794C43.0419 51.0773 42.7206 50.3556 42.4399 49.6177C42.4399 50.4038 42.4947 51.292 42.4947 52.3847V54.4442L41.4773 54.4521Z" fill="#2A3647"/>
</svg>
