<svg width="101" height="122" viewBox="0 0 101 122" fill="none" xmlns="http://www.w3.org/2000/svg">
<path d="M71.6725 0H49.5146V25.4923H71.6725V0Z" fill="white"/>
<path d="M49.5142 46.2246H71.6721V82.1775C71.7733 90.8287 69.3112 99.3148 64.5986 106.557C59.9455 113.593 50.963 121.965 34.3446 121.965C16.2434 121.965 5.69286 113.405 0 108.714L13.9765 91.4738C19.533 96.0107 24.885 99.743 34.4299 99.743C41.6567 99.743 44.5372 96.7983 46.2247 94.2302C48.5186 90.6632 49.7052 86.4918 49.6335 82.2459L49.5142 46.2246Z" fill="white"/>
<path d="M38.2135 30.1318H16.0557V52.3884H38.2135V30.1318Z" fill="#29ABE2"/>
<path d="M83.2795 111.523C83.2795 116.265 80.8762 118.816 77.5184 118.816C74.1607 118.816 71.9619 115.786 71.9619 111.762C71.9619 107.739 74.2288 104.555 77.7059 104.555C81.183 104.555 83.2795 107.688 83.2795 111.523ZM74.5356 111.711C74.5356 114.57 75.6776 116.676 77.6377 116.676C79.5978 116.676 80.7057 114.45 80.7057 111.54C80.7057 108.989 79.6831 106.592 77.6377 106.592C75.5924 106.592 74.5356 108.903 74.5356 111.711Z" fill="white"/>
<path d="M87.6771 104.76V118.593H85.2227V104.76H87.6771Z" fill="white"/>
<path d="M90.3359 118.593V104.76H93.0631L95.9947 110.461C96.7494 111.952 97.4209 113.483 98.006 115.049C97.8526 113.337 97.7844 111.368 97.7844 109.177V104.76H100.034V118.593H97.4946L94.5289 112.772C93.7437 111.243 93.0438 109.671 92.4324 108.064C92.4324 109.776 92.5517 111.711 92.5517 114.09V118.576L90.3359 118.593Z" fill="white"/>
</svg>
