<svg width="24" height="24" viewBox="0 0 24 24" fill="none" xmlns="http://www.w3.org/2000/svg">
<mask id="mask0_350504_9210" style="mask-type:alpha" maskUnits="userSpaceOnUse" x="0" y="0" width="24" height="24">
<rect width="24" height="24" fill="#D9D9D9"/>
</mask>
<g mask="url(#mask0_350504_9210)">
<path d="M4.6 21.5C4.0225 21.5 3.52813 21.2939 3.11687 20.8816C2.70563 20.4693 2.5 19.9737 2.5 19.3947V7.81579C2.5 7.23684 2.70563 6.74123 3.11687 6.32895C3.52813 5.91667 4.0225 5.71053 4.6 5.71053H8.8V3.60526C8.8 3.02632 9.00562 2.5307 9.41687 2.11842C9.82812 1.70614 10.3225 1.5 10.9 1.5H15.1C15.6775 1.5 16.1719 1.70614 16.5831 2.11842C16.9944 2.5307 17.2 3.02632 17.2 3.60526V5.71053H21.4C21.9775 5.71053 22.4719 5.91667 22.8831 6.32895C23.2944 6.74123 23.5 7.23684 23.5 7.81579V19.3947C23.5 19.9737 23.2944 20.4693 22.8831 20.8816C22.4719 21.2939 21.9775 21.5 21.4 21.5H4.6ZM4.6 19.3947H21.4V7.81579H4.6V19.3947ZM10.9 5.71053H15.1V3.60526H10.9V5.71053Z" fill="#29ABE2"/>
</g>
</svg>
