<svg width="75" height="22" viewBox="0 0 75 22" fill="none" xmlns="http://www.w3.org/2000/svg">
<rect width="75" height="22" rx="4" fill="#EBFC88"/>
<path d="M10.9998 18C10.0431 18 9.13898 17.8162 8.28732 17.4487C7.43565 17.0812 6.6919 16.5796 6.05607 15.9437C5.42023 15.3079 4.91857 14.5642 4.55107 13.7125C4.18357 12.8608 3.99982 11.9567 3.99982 11C3.99982 10.0317 4.18357 9.12458 4.55107 8.27875C4.91857 7.43292 5.42023 6.69208 6.05607 6.05625C6.6919 5.42042 7.43565 4.91875 8.28732 4.55125C9.13898 4.18375 10.0431 4 10.9998 4C11.9682 4 12.8752 4.18375 13.7211 4.55125C14.5669 4.91875 15.3077 5.42042 15.9436 6.05625C16.5794 6.69208 17.0811 7.43292 17.4486 8.27875C17.8161 9.12458 17.9998 10.0317 17.9998 11C17.9998 11.9567 17.8161 12.8608 17.4486 13.7125C17.0811 14.5642 16.5794 15.3079 15.9436 15.9437C15.3077 16.5796 14.5669 17.0812 13.7211 17.4487C12.8752 17.8162 11.9682 18 10.9998 18ZM10.9998 16.565C11.3032 16.145 11.5656 15.7075 11.7873 15.2525C12.009 14.7975 12.1898 14.3133 12.3298 13.8H9.66982C9.80982 14.3133 9.99065 14.7975 10.2123 15.2525C10.434 15.7075 10.6965 16.145 10.9998 16.565ZM9.17982 16.285C8.96982 15.9 8.78607 15.5004 8.62857 15.0863C8.47107 14.6721 8.33982 14.2433 8.23482 13.8H6.16982C6.50815 14.3833 6.93107 14.8908 7.43857 15.3225C7.94607 15.7542 8.52648 16.075 9.17982 16.285ZM12.8198 16.285C13.4732 16.075 14.0536 15.7542 14.5611 15.3225C15.0686 14.8908 15.4915 14.3833 15.8298 13.8H13.7648C13.6598 14.2433 13.5286 14.6721 13.3711 15.0863C13.2136 15.5004 13.0298 15.9 12.8198 16.285ZM5.57482 12.4H7.95482C7.91982 12.1667 7.89357 11.9362 7.87607 11.7087C7.85857 11.4812 7.84982 11.245 7.84982 11C7.84982 10.755 7.85857 10.5188 7.87607 10.2913C7.89357 10.0637 7.91982 9.83333 7.95482 9.6H5.57482C5.51648 9.83333 5.47273 10.0637 5.44357 10.2913C5.4144 10.5188 5.39982 10.755 5.39982 11C5.39982 11.245 5.4144 11.4812 5.44357 11.7087C5.47273 11.9362 5.51648 12.1667 5.57482 12.4ZM9.35482 12.4H12.6448C12.6798 12.1667 12.7061 11.9362 12.7236 11.7087C12.7411 11.4812 12.7498 11.245 12.7498 11C12.7498 10.755 12.7411 10.5188 12.7236 10.2913C12.7061 10.0637 12.6798 9.83333 12.6448 9.6H9.35482C9.31982 9.83333 9.29357 10.0637 9.27607 10.2913C9.25857 10.5188 9.24982 10.755 9.24982 11C9.24982 11.245 9.25857 11.4812 9.27607 11.7087C9.29357 11.9362 9.31982 12.1667 9.35482 12.4ZM14.0448 12.4H16.4248C16.4832 12.1667 16.5269 11.9362 16.5561 11.7087C16.5852 11.4812 16.5998 11.245 16.5998 11C16.5998 10.755 16.5852 10.5188 16.5561 10.2913C16.5269 10.0637 16.4832 9.83333 16.4248 9.6H14.0448C14.0798 9.83333 14.1061 10.0637 14.1236 10.2913C14.1411 10.5188 14.1498 10.755 14.1498 11C14.1498 11.245 14.1411 11.4812 14.1236 11.7087C14.1061 11.9362 14.0798 12.1667 14.0448 12.4ZM13.7648 8.2H15.8298C15.4915 7.61667 15.0686 7.10917 14.5611 6.6775C14.0536 6.24583 13.4732 5.925 12.8198 5.715C13.0298 6.1 13.2136 6.49958 13.3711 6.91375C13.5286 7.32792 13.6598 7.75667 13.7648 8.2ZM9.66982 8.2H12.3298C12.1898 7.68667 12.009 7.2025 11.7873 6.7475C11.5656 6.2925 11.3032 5.855 10.9998 5.435C10.6965 5.855 10.434 6.2925 10.2123 6.7475C9.99065 7.2025 9.80982 7.68667 9.66982 8.2ZM6.16982 8.2H8.23482C8.33982 7.75667 8.47107 7.32792 8.62857 6.91375C8.78607 6.49958 8.96982 6.1 9.17982 5.715C8.52648 5.925 7.94607 6.24583 7.43857 6.6775C6.93107 7.10917 6.50815 7.61667 6.16982 8.2Z" fill="#0B3681"/>
<path d="M23.4091 16.5V4.86364H30.4318V6.11364H24.8182V10.0455H30.0682V11.2955H24.8182V15.25H30.5227V16.5H23.4091ZM33.7898 7.77273L35.8807 11.3409L37.9716 7.77273H39.517L36.6989 12.1364L39.517 16.5H37.9716L35.8807 13.1136L33.7898 16.5H32.2443L35.017 12.1364L32.2443 7.77273H33.7898ZM45.2259 7.77273V8.90909H40.7031V7.77273H45.2259ZM42.0213 5.68182H43.3622V14C43.3622 14.3788 43.4171 14.6629 43.527 14.8523C43.6406 15.0379 43.7846 15.1629 43.9588 15.2273C44.1368 15.2879 44.3243 15.3182 44.5213 15.3182C44.669 15.3182 44.7902 15.3106 44.8849 15.2955C44.9796 15.2765 45.0554 15.2614 45.1122 15.25L45.3849 16.4545C45.294 16.4886 45.1671 16.5227 45.0043 16.5568C44.8414 16.5947 44.6349 16.6136 44.3849 16.6136C44.0062 16.6136 43.6349 16.5322 43.2713 16.3693C42.9115 16.2064 42.6122 15.9583 42.3736 15.625C42.1387 15.2917 42.0213 14.8712 42.0213 14.3636V5.68182ZM50.8082 16.6818C49.9673 16.6818 49.242 16.4962 48.6321 16.125C48.026 15.75 47.5582 15.2273 47.2287 14.5568C46.9029 13.8826 46.7401 13.0985 46.7401 12.2045C46.7401 11.3106 46.9029 10.5227 47.2287 9.84091C47.5582 9.1553 48.0166 8.62121 48.6037 8.23864C49.1946 7.85227 49.884 7.65909 50.6719 7.65909C51.1264 7.65909 51.5753 7.73485 52.0185 7.88636C52.4616 8.03788 52.8651 8.28409 53.2287 8.625C53.5923 8.96212 53.8821 9.40909 54.098 9.96591C54.3139 10.5227 54.4219 11.2083 54.4219 12.0227V12.5909H47.6946V11.4318H53.0582C53.0582 10.9394 52.9598 10.5 52.7628 10.1136C52.5696 9.72727 52.2931 9.42235 51.9332 9.19886C51.5772 8.97538 51.1567 8.86364 50.6719 8.86364C50.1378 8.86364 49.6757 8.99621 49.2855 9.26136C48.8991 9.52273 48.6018 9.86364 48.3935 10.2841C48.1851 10.7045 48.081 11.1553 48.081 11.6364V12.4091C48.081 13.0682 48.1946 13.6269 48.4219 14.0852C48.6529 14.5398 48.973 14.8864 49.3821 15.125C49.7912 15.3598 50.2666 15.4773 50.8082 15.4773C51.1605 15.4773 51.4787 15.428 51.7628 15.3295C52.0507 15.2273 52.2988 15.0758 52.5071 14.875C52.7154 14.6705 52.8764 14.4167 52.9901 14.1136L54.2855 14.4773C54.1491 14.9167 53.92 15.303 53.598 15.6364C53.276 15.9659 52.8783 16.2235 52.4048 16.4091C51.9313 16.5909 51.3991 16.6818 50.8082 16.6818ZM56.4616 16.5V7.77273H57.7571V9.09091H57.848C58.0071 8.65909 58.295 8.30871 58.7116 8.03977C59.1283 7.77083 59.598 7.63636 60.1207 7.63636C60.2192 7.63636 60.3423 7.63826 60.4901 7.64205C60.6378 7.64583 60.7495 7.65152 60.8253 7.65909V9.02273C60.7798 9.01136 60.6757 8.99432 60.5128 8.97159C60.3537 8.94508 60.1851 8.93182 60.0071 8.93182C59.5829 8.93182 59.2041 9.02083 58.8707 9.19886C58.5412 9.37311 58.2798 9.61553 58.0866 9.92614C57.8973 10.233 57.8026 10.5833 57.8026 10.9773V16.5H56.4616ZM63.7557 11.25V16.5H62.4148V7.77273H63.7102V9.13636H63.8239C64.0284 8.69318 64.339 8.33712 64.7557 8.06818C65.1723 7.79545 65.7102 7.65909 66.3693 7.65909C66.9602 7.65909 67.4773 7.7803 67.9205 8.02273C68.3636 8.26136 68.7083 8.625 68.9545 9.11364C69.2008 9.59848 69.3239 10.2121 69.3239 10.9545V16.5H67.983V11.0455C67.983 10.3598 67.8049 9.82576 67.4489 9.44318C67.0928 9.05682 66.6042 8.86364 65.983 8.86364C65.5549 8.86364 65.1723 8.95644 64.8352 9.14205C64.5019 9.32765 64.2386 9.59848 64.0455 9.95455C63.8523 10.3106 63.7557 10.7424 63.7557 11.25Z" fill="#0B3681"/>
</svg>
